<svg xmlns="http://www.w3.org/2000/svg" viewBox="0 0 277.33 277.77">
  <defs>
    <style>
      .cls-1 {
        fill: #00a049;
      }

      .cls-2 {
        fill: #00803c;
      }

      .cls-3 {
        fill: #e41f22;
      }

      .cls-4 {
        fill: #1d1d1b;
      }

      .cls-5 {
        fill: #fff;
      }
    </style>
  </defs>
  <g id="around_remove" data-name="around remove">
    <circle class="cls-1" cx="138.67" cy="139.1" r="138.67" />
    <path class="cls-2"
      d="M14.92,139.1S10.59,64.17,41.42,32.23c-7.61-7-.5-19.5,15.63-11.21C44,45.18,24.47,99.69,24.47,139.1Z" />
    <path class="cls-2"
      d="M263.05,139.1s4.33-74.93-26.5-106.87c7.61-7,.5-19.5-15.63-11.21,13,24.16,32.57,78.67,32.57,118.08Z" />
    <path class="cls-2" d="M41.8,139.1h9.84S83.72,5.82,97.36,0C79,2.48,88.5,2.71,88.5,2.71S64.92-8.53,41.8,139.1Z" />
    <path class="cls-2"
      d="M234.14,139.1h-9.46s-30.84-130-44-135.67c17.63,2.41,8.52,2.63,8.52,2.63S211.92-4.9,234.14,139.1Z" />
    <path class="cls-2" d="M138.67,139.1h16.91S155.75,41,138.67.43c-14,29.19-17.09,93.93-17.09,138.67" />
    <path class="cls-2"
      d="M84.76,139.1h7.56S117,5.82,127.43,0c-14.08,2.48-6.8,2.71-6.8,2.71S102.52-8.53,84.76,139.1Z" />
    <path class="cls-2"
      d="M195.51,139.1H188S163.32,5.82,152.84,0c14.09,2.48,6.81,2.71,6.81,2.71S177.76-8.53,195.51,139.1Z" />
    <path class="cls-3" d="M277.33,139.1A138.67,138.67,0,1,1,0,139.1Z" />
    <path class="cls-4"
      d="M31.5,147.55c11.55,3.55-3.41,8.82-3.41,8.82s-4.74-1.57-3.11-10.9C30,147.4,31.5,147.55,31.5,147.55Z" />
    <path class="cls-4"
      d="M58.28,199.61c11.56,3.56-3.4,8.82-3.4,8.82s-4.74-1.56-3.11-10.89C56.8,199.47,58.28,199.61,58.28,199.61Z" />
    <path class="cls-4"
      d="M139.82,218c11.56,3.56-3.4,8.82-3.4,8.82s-4.74-1.56-3.11-10.89C138.34,217.88,139.82,218,139.82,218Z" />
    <path class="cls-4"
      d="M142.76,161c11.56,3.56-3.41,8.82-3.41,8.82s-4.74-1.56-3.11-10.89C141.28,160.87,142.76,161,142.76,161Z" />
    <path class="cls-4"
      d="M107.34,191c11.55,3.55-3.41,8.82-3.41,8.82s-4.74-1.56-3.11-10.9C105.86,190.88,107.34,191,107.34,191Z" />
    <path class="cls-4"
      d="M87.59,161c11.56,3.56-3.4,8.82-3.4,8.82s-4.74-1.56-3.11-10.89C86.11,160.87,87.59,161,87.59,161Z" />
    <path class="cls-4"
      d="M222.16,212.58c11.56,3.55-3.41,8.82-3.41,8.82s-4.74-1.56-3.11-10.9C220.68,212.43,222.16,212.58,222.16,212.58Z" />
    <path class="cls-4"
      d="M80.38,177.36c11.56,3.56-3.4,8.82-3.4,8.82s-4.74-1.56-3.11-10.89C78.9,177.21,80.38,177.36,80.38,177.36Z" />
    <path class="cls-4"
      d="M193.28,185.58c11.55,3.56-3.41,8.82-3.41,8.82s-4.74-1.56-3.11-10.89C191.79,185.43,193.28,185.58,193.28,185.58Z" />
    <path class="cls-4"
      d="M175.42,214c11.55,3.56-3.41,8.82-3.41,8.82s-4.74-1.56-3.11-10.89C173.94,213.88,175.42,214,175.42,214Z" />
    <path class="cls-4"
      d="M227.78,185.58c11.56,3.56-3.41,8.82-3.41,8.82s-4.74-1.56-3.11-10.89C226.3,185.43,227.78,185.58,227.78,185.58Z" />
    <path class="cls-4"
      d="M156.82,240.88c11.56,3.55-3.4,8.82-3.4,8.82s-4.74-1.56-3.11-10.9C155.34,240.73,156.82,240.88,156.82,240.88Z" />
    <path class="cls-4"
      d="M101.72,215.8c11.55,3.56-3.41,8.82-3.41,8.82s-4.74-1.56-3.11-10.89C100.24,215.65,101.72,215.8,101.72,215.8Z" />
    <path class="cls-4"
      d="M122.82,177.36c11.56,3.56-3.4,8.82-3.4,8.82s-4.74-1.56-3.11-10.89C121.34,177.21,122.82,177.36,122.82,177.36Z" />
    <path class="cls-4"
      d="M182,161c11.56,3.56-3.41,8.82-3.41,8.82s-4.74-1.56-3.11-10.89C180.49,160.87,182,161,182,161Z" />
    <path class="cls-4"
      d="M158.77,185.58c11.56,3.56-3.41,8.82-3.41,8.82s-4.74-1.56-3.11-10.89C157.29,185.43,158.77,185.58,158.77,185.58Z" />
    <path class="cls-4"
      d="M114.77,240.88c11.56,3.55-3.41,8.82-3.41,8.82s-4.74-1.56-3.11-10.9C113.29,240.73,114.77,240.88,114.77,240.88Z" />
    <path class="cls-4"
      d="M40.1,171.92c11.56,3.55-3.4,8.82-3.4,8.82s-4.75-1.56-3.12-10.9C38.62,171.77,40.1,171.92,40.1,171.92Z" />
    <path class="cls-4"
      d="M233.4,161c11.56,3.56-3.41,8.82-3.41,8.82s-4.74-1.56-3.11-10.89C231.92,160.87,233.4,161,233.4,161Z" />
    <path class="cls-4"
      d="M208.68,155.58c11.55,3.55-3.41,8.82-3.41,8.82s-4.74-1.57-3.11-10.9C207.19,155.43,208.68,155.58,208.68,155.58Z" />
    <path class="cls-4"
      d="M193.28,237.14c11.55,3.55-3.41,8.82-3.41,8.82s-4.74-1.56-3.11-10.9C191.79,237,193.28,237.14,193.28,237.14Z" />
    <path class="cls-4"
      d="M80.38,231.69c11.56,3.55-3.4,8.82-3.4,8.82s-4.74-1.56-3.11-10.9C78.9,231.54,80.38,231.69,80.38,231.69Z" />
    <path class="cls-5"
      d="M138.67.43A138.67,138.67,0,1,1,0,139.1,138.67,138.67,0,0,1,138.67.43m0-20A158.64,158.64,0,0,0,26.47,251.3a158.67,158.67,0,1,0,174-258.39,157.64,157.64,0,0,0-61.76-12.48Z" />
  </g>
</svg>